<svg width="1600" height="1072" viewBox="0 0 1600 1072" fill="none" xmlns="http://www.w3.org/2000/svg">
<path opacity="0.05" d="M629.519 20.8028C725.463 -10.9921 1007.66 -38.7352 1135.69 238.457C1301.2 596.795 1539.02 669.493 1797.57 534.949M612.581 32.6169C708.525 0.822069 990.727 -26.921 1118.76 250.271C1284.26 608.609 1522.08 681.307 1780.63 546.763M595.643 44.4311C691.587 12.6362 973.789 -15.1069 1101.82 262.086C1267.32 620.423 1505.14 693.121 1763.69 558.577M578.705 56.2452C674.649 24.4503 956.851 -3.29272 1084.88 273.9C1250.39 632.238 1488.21 704.935 1746.75 570.392M561.767 68.0593C657.711 36.2645 939.913 8.52142 1067.94 285.714C1233.45 644.052 1471.27 716.749 1729.82 582.206M544.829 79.8735C640.773 48.0786 922.975 20.3356 1051 297.528C1216.51 655.866 1454.33 728.563 1712.88 594.02M527.891 91.6876C623.835 59.8928 906.037 32.1497 1034.07 309.342C1199.57 667.68 1437.39 740.378 1695.94 605.834M510.953 103.502C606.897 71.7069 889.099 43.9639 1017.13 321.156C1182.63 679.494 1420.45 752.192 1679 617.648M494.015 115.316C589.959 83.5211 872.161 55.778 1000.19 332.97C1165.7 691.308 1403.52 764.006 1662.06 629.462M477.077 127.13C573.021 95.3352 855.223 67.5921 983.251 344.785C1148.76 703.123 1386.58 775.82 1645.13 641.276M460.139 138.944C556.083 107.149 838.285 79.4063 966.313 356.599C1131.82 714.937 1369.64 787.634 1628.19 653.091M443.201 150.758C539.145 118.964 821.347 91.2204 949.375 368.413C1114.88 726.751 1352.7 799.448 1611.25 664.905M426.263 162.573C522.207 130.778 804.409 103.035 932.437 380.227C1097.94 738.565 1335.76 811.263 1594.31 676.719M409.326 174.387C505.269 142.592 787.471 114.849 915.499 392.041C1081.01 750.379 1318.83 823.077 1577.37 688.533M392.388 186.201C488.331 154.406 770.533 126.663 898.561 403.855C1064.07 762.193 1301.89 834.891 1560.44 700.347M375.45 198.015C471.393 166.22 753.595 138.477 881.623 415.669C1047.13 774.007 1284.95 846.705 1543.5 712.161M358.512 209.829C454.455 178.034 736.657 150.291 864.685 427.484C1030.19 785.822 1268.01 858.519 1526.56 723.975M341.574 221.643C437.517 189.848 719.719 162.105 847.747 439.298C1013.25 797.636 1251.07 870.333 1509.62 735.79M324.636 233.457C420.579 201.663 702.781 173.919 830.809 451.112C996.317 809.45 1234.14 882.147 1492.68 747.604M307.698 245.272C403.641 213.477 685.843 185.734 813.871 462.926C979.379 821.264 1217.2 893.962 1475.75 759.418M290.76 257.086C386.703 225.291 668.905 197.548 796.933 474.74C962.441 833.078 1200.26 905.776 1458.81 771.232M273.822 268.9C369.765 237.105 651.967 209.362 779.995 486.554C945.503 844.892 1183.32 917.59 1441.87 783.046M256.884 280.714C352.827 248.919 635.029 221.176 763.057 498.368C928.565 856.706 1166.38 929.404 1424.93 794.86M239.946 292.528C335.889 260.733 618.091 232.99 746.119 510.183C911.627 868.521 1149.45 941.218 1407.99 806.674M223.008 304.342C318.951 272.547 601.153 244.804 729.181 521.997C894.689 880.335 1132.51 953.032 1391.06 818.489M206.07 316.156C302.013 284.362 584.215 256.618 712.243 533.811C877.751 892.149 1115.57 964.846 1374.12 830.303M189.132 327.971C285.075 296.176 567.277 268.433 695.305 545.625C860.813 903.963 1098.63 976.661 1357.18 842.117M172.194 339.785C268.137 307.99 550.339 280.247 678.368 557.439C843.875 915.777 1081.69 988.475 1340.24 853.931M155.256 351.599C251.199 319.804 533.401 292.061 661.43 569.253C826.937 927.591 1064.76 1000.29 1323.3 865.745M138.318 363.413C234.261 331.618 516.463 303.875 644.491 581.068C809.999 939.405 1047.82 1012.1 1306.37 877.559M121.38 375.227C217.323 343.432 499.525 315.689 627.554 592.882C793.061 951.22 1030.88 1023.92 1289.43 889.373M104.442 387.041C200.385 355.246 482.587 327.503 610.616 604.696C776.123 963.034 1013.94 1035.73 1272.49 901.188M87.5038 398.855C183.447 367.061 465.649 339.317 593.678 616.51C759.185 974.848 997.004 1047.55 1255.55 913.002M70.5658 410.67C166.509 378.875 448.711 351.132 576.74 628.324C742.247 986.662 980.066 1059.36 1238.62 924.816M53.6278 422.484C149.571 390.689 431.773 362.946 559.802 640.138C725.309 998.476 963.128 1071.17 1221.68 936.63M36.6898 434.298C132.634 402.503 414.835 374.76 542.864 651.952C708.371 1010.29 946.19 1082.99 1204.74 948.444M19.7519 446.112C115.696 414.317 397.897 386.574 525.926 663.767C691.433 1022.1 929.252 1094.8 1187.8 960.258M2.81388 457.926C98.7575 426.131 380.959 398.388 508.988 675.581C674.495 1033.92 912.314 1106.62 1170.86 972.073M-14.1241 469.74C81.8195 437.945 364.021 410.202 492.05 687.395C657.557 1045.73 895.376 1118.43 1153.93 983.887M-31.0621 481.554C64.8815 449.76 347.083 422.016 475.112 699.209C640.619 1057.55 878.438 1130.24 1136.99 995.701M-48 493.369C47.9435 461.574 330.145 433.831 458.174 711.023C623.681 1069.36 861.5 1142.06 1120.05 1007.51" stroke="#222222"/>
</svg>
