<svg width="20" height="20" viewBox="0 0 20 20" fill="none" xmlns="http://www.w3.org/2000/svg">
<path d="M20 10C20 15.514 15.514 20 10 20C4.48604 20 0 15.514 0 10C0 9.65458 0.279583 9.375 0.625 9.375C0.970417 9.375 1.25 9.65458 1.25 10C1.25 14.8248 5.17521 18.75 10 18.75C14.8248 18.75 18.75 14.8248 18.75 10C18.75 5.17521 14.8248 1.25 10 1.25C7.67438 1.25 5.51542 2.15396 3.89125 3.75H6.25C6.59542 3.75 6.875 4.02958 6.875 4.375C6.875 4.72042 6.59542 5 6.25 5H2.5C2.15458 5 1.875 4.72042 1.875 4.375V0.625C1.875 0.279583 2.15458 0 2.5 0C2.84542 0 3.125 0.279583 3.125 0.625V2.75708C4.96896 0.997083 7.39187 0 10 0C15.514 0 20 4.48604 20 10ZM15.625 7.5V13.125C15.625 13.3856 15.4633 13.6187 15.2198 13.7104L10.2198 15.5854C10.149 15.6117 10.0744 15.625 10 15.625C9.92562 15.625 9.85104 15.6117 9.78021 15.5854L4.78021 13.7104C4.53667 13.6187 4.375 13.3856 4.375 13.125V7.5C4.375 7.23938 4.53667 7.00625 4.78021 6.91458L9.78021 5.03958C9.92188 4.98708 10.0781 4.98708 10.2196 5.03958L15.2196 6.91458C15.4633 7.00625 15.625 7.23938 15.625 7.5ZM6.77979 7.5L10 8.70729L13.2202 7.5L10 6.29271L6.77979 7.5ZM5.625 12.6917L9.375 14.0979V9.80833L5.625 8.40208V12.6917ZM14.375 12.6917V8.40208L10.625 9.80833V14.0979L14.375 12.6917Z" fill="#FFC901"/>
</svg>
