
<svg width="16" height="16" viewBox="0 0 16 16" fill="none" xmlns="http://www.w3.org/2000/svg">
<path fill-rule="evenodd" clip-rule="evenodd" d="M0.473846 0.473773C0.769564 0.178053 1.16644 0.00773438 1.57717 0.000255556C1.98791 -0.00720137 2.37885 0.148793 2.66401 0.433952L15.5661 13.3361C15.8512 13.6212 16.0072 14.0122 15.9997 14.4229C15.9922 14.8336 15.822 15.2305 15.5262 15.5262C15.2305 15.822 14.8336 15.9922 14.4229 15.9997C14.0122 16.0072 13.6212 15.8512 13.3361 15.5661L0.434024 2.66395C0.148868 2.37879 -0.0071264 1.98784 0.000330485 1.57711C0.00780927 1.16637 0.178127 0.769492 0.473846 0.473773Z" fill="#222222"/>
<path fill-rule="evenodd" clip-rule="evenodd" d="M15.5262 0.473773C15.8219 0.769492 15.9922 1.16637 15.9997 1.57711C16.0071 1.98784 15.8511 2.37879 15.566 2.66395L2.66393 15.5661C2.37879 15.8512 1.98779 16.0072 1.5771 15.9997C1.1664 15.9922 0.769481 15.822 0.473763 15.5262C0.178045 15.2305 0.0077694 14.8336 0.000258362 14.4229C-0.00724153 14.0122 0.148806 13.6212 0.433941 13.3361L13.336 0.433952C13.6211 0.148793 14.0121 -0.00720125 14.4228 0.000255678C14.8336 0.0077345 15.2304 0.178053 15.5262 0.473773Z" fill="#222222"/>
</svg>
