<svg width="18" height="18" viewBox="0 0 18 18" fill="none" xmlns="http://www.w3.org/2000/svg">
    <path fill-rule="evenodd" clip-rule="evenodd" d="M0 1.5C0 1.10217 0.135463 0.720645 0.376573 0.439335C0.617696 0.15804 0.944717 0 1.28571 0H16.7143C17.0553 0 17.3823 0.15804 17.6234 0.439335C17.8645 0.720645 18 1.10217 18 1.5C18 1.89783 17.8645 2.27935 17.6234 2.56066C17.3823 2.84196 17.0553 3 16.7143 3H1.28571C0.944717 3 0.617696 2.84196 0.376573 2.56066C0.135463 2.27935 0 1.89783 0 1.5ZM0 9C0 8.60217 0.135463 8.22064 0.376573 7.93933C0.617696 7.65804 0.944717 7.5 1.28571 7.5H9C9.34097 7.5 9.66806 7.65804 9.90913 7.93933C10.1502 8.22064 10.2857 8.60217 10.2857 9C10.2857 9.3978 10.1502 9.7794 9.90913 10.0606C9.66806 10.3419 9.34097 10.5 9 10.5H1.28571C0.944717 10.5 0.617696 10.3419 0.376573 10.0606C0.135463 9.7794 0 9.3978 0 9ZM0 16.5C0 16.1022 0.135463 15.7206 0.376573 15.4394C0.617696 15.1581 0.944717 15 1.28571 15H16.7143C17.0553 15 17.3823 15.1581 17.6234 15.4394C17.8645 15.7206 18 16.1022 18 16.5C18 16.8978 17.8645 17.2794 17.6234 17.5606C17.3823 17.8419 17.0553 18 16.7143 18H1.28571C0.944717 18 0.617696 17.8419 0.376573 17.5606C0.135463 17.2794 0 16.8978 0 16.5Z" fill="#222222"/>
</svg>