<svg width="12" height="10" viewBox="0 0 12 10" fill="none" xmlns="http://www.w3.org/2000/svg">
<path d="M0.188106 5.65757C0.0523269 5.80721 -0.013742 5.9977 0.00238505 6.19459C0.0185121 6.39148 0.114234 6.57065 0.272903 6.69863L4.12414 9.82231C4.26721 9.93798 4.4446 10 4.63085 10C4.65374 10 4.67715 9.99902 4.70056 9.99705C4.91125 9.97933 5.10113 9.88433 5.23535 9.73026L11.8225 2.14454C11.9546 1.99195 12.0165 1.79998 11.9962 1.60359C11.9754 1.40719 11.876 1.22998 11.7148 1.10447L10.5089 0.167265C10.1765 -0.0906617 9.68433 -0.0453767 9.41069 0.269157L4.34108 6.10746L2.30387 4.45604C1.97717 4.19221 1.48399 4.22716 1.20359 4.53627L0.188106 5.65757Z" fill="#FFC901"/>
</svg>
