<svg width="8" height="7" viewBox="0 0 8 7" fill="none" xmlns="http://www.w3.org/2000/svg">
<path d="M0.125404 3.9603C0.0348846 4.06504 -0.00916133 4.19839 0.00159003 4.33621C0.0123414 4.47404 0.0761559 4.59946 0.181935 4.68904L2.74943 6.87561C2.8448 6.95659 2.96307 7 3.08723 7C3.10249 7 3.1181 6.99931 3.1337 6.99793C3.27417 6.98553 3.40075 6.91903 3.49023 6.81118L7.88164 1.50118C7.96974 1.39437 8.01101 1.25999 7.99748 1.12251C7.98361 0.98503 7.91737 0.860989 7.80985 0.773126L7.00593 0.117086C6.78431 -0.0634632 6.45622 -0.0317637 6.2738 0.18841L2.89405 4.27523L1.53591 3.11923C1.31811 2.93455 0.989328 2.95901 0.802393 3.17539L0.125404 3.9603Z" fill="#251E03"/>
</svg>
