<svg width="50" height="47" viewBox="0 0 50 47" fill="none" xmlns="http://www.w3.org/2000/svg">
<path d="M7.82201 12.0468H7.87535C9.88187 12.0447 11.5076 10.4301 11.5098 8.43742V7.23557C11.5076 5.24331 9.88187 3.62874 7.87535 3.62617H7.82201C5.81549 3.62874 4.18971 5.24331 4.18756 7.23557V8.43699C4.18928 10.4297 5.81549 12.0447 7.82201 12.0468ZM5.72945 7.23599C5.73074 6.08883 6.66645 5.15914 7.82201 5.15786H7.87535C9.03048 5.15914 9.96662 6.08883 9.96791 7.23599V8.43742C9.96662 9.58458 9.03048 10.5143 7.87535 10.5156H7.82201C6.66645 10.5143 5.73074 9.58458 5.72945 8.43742V7.23599Z" fill="#222222"/>
<path d="M12.1254 13.1987H10.6042C10.408 13.1991 10.2196 13.2734 10.0768 13.4067L7.95924 15.3798L5.92692 13.4153C5.78279 13.2764 5.59006 13.1987 5.38915 13.1987H3.77413C2.71408 13.1987 1.70308 13.6413 0.988065 14.418C0.273051 15.1952 -0.0801546 16.2351 0.0153528 17.2836V26.0704C0.0153528 27.3671 1.07368 28.4181 2.37938 28.419H2.40734C2.72398 28.4155 3.03674 28.3472 3.32585 28.2181L3.73197 44.1075C3.76681 45.085 4.37686 45.9511 5.28977 46.3185C6.20268 46.6855 7.24767 46.486 7.95795 45.808C8.6691 46.4869 9.71624 46.6864 10.63 46.3168C11.5438 45.9472 12.1525 45.0782 12.1844 44.0994L12.5901 28.231C13.321 28.5407 14.1595 28.4651 14.8224 28.0302C15.4854 27.5948 15.8846 26.8586 15.8846 26.0691V17.284C15.9797 16.2355 15.6269 15.1956 14.9119 14.4185C14.1965 13.6413 13.1855 13.1987 12.1254 13.1987ZM9.68612 44.9684C9.15739 44.968 8.7289 44.5424 8.72847 44.0178V28.1011H7.18658V44.0178C7.18615 44.5343 6.77056 44.956 6.25044 44.9676C5.73031 44.9791 5.29622 44.5762 5.27256 44.0601L4.81352 26.102H11.1024L10.6429 44.0515C10.6261 44.5638 10.2019 44.9701 9.68612 44.9684ZM14.3462 17.1699C14.3436 17.1956 14.3423 17.2216 14.3423 17.2473V26.0691C14.3372 26.5177 13.9693 26.8792 13.5172 26.8792C13.0654 26.8792 12.6976 26.5177 12.6925 26.0691V24.199L12.7015 23.8436H12.6925V20.1641H11.1506V24.1811L11.1407 24.5707H4.7748L4.75544 23.8051H4.74598V20.1645H3.20409V26.0264C3.21442 26.4861 2.85261 26.8689 2.39013 26.8881C2.17029 26.8907 1.95863 26.8057 1.80203 26.6523C1.64586 26.4985 1.55767 26.2896 1.55767 26.0708V17.2477C1.55767 17.2216 1.55638 17.196 1.5538 17.1704C1.49012 16.5466 1.69534 15.9254 2.11867 15.4605C2.542 14.9957 3.14344 14.7304 3.77456 14.7304H5.07638L7.41158 16.9871C7.41502 16.9905 7.4189 16.9926 7.42277 16.996C7.446 17.0178 7.47009 17.0379 7.4959 17.0567C7.49762 17.058 7.49935 17.0597 7.5015 17.061C7.52946 17.0806 7.55872 17.0986 7.58883 17.1144C7.59485 17.1174 7.60088 17.1204 7.60733 17.1234C7.63529 17.1375 7.66412 17.1494 7.69337 17.1601C7.69595 17.161 7.69853 17.1623 7.70155 17.1631C7.73295 17.1734 7.76479 17.1819 7.79748 17.1883C7.80523 17.1896 7.81297 17.1909 7.82029 17.1922C7.84911 17.1973 7.87836 17.2003 7.90762 17.202C7.91192 17.202 7.91622 17.2028 7.92095 17.2033C7.95365 17.2041 7.98635 17.2033 8.01904 17.2003C8.02679 17.1994 8.03453 17.1986 8.04228 17.1977C8.07454 17.1939 8.10681 17.1883 8.13821 17.1806L8.14165 17.1798C8.17564 17.1708 8.2092 17.1597 8.24189 17.146C8.24448 17.1452 8.24706 17.1447 8.24964 17.1434C8.25265 17.1426 8.25523 17.1405 8.25781 17.1396C8.32105 17.1118 8.38042 17.0764 8.4342 17.0332C8.44108 17.0272 8.44797 17.0217 8.45485 17.0157C8.46173 17.0097 8.47034 17.0033 8.47765 16.9965L10.9096 14.7304H12.1263C12.757 14.7304 13.3584 14.9957 13.7818 15.4605C14.2047 15.9254 14.4099 16.5466 14.3462 17.1699Z" fill="#222222"/>
<path d="M41.9229 12.0468H41.9767C43.9827 12.0447 45.6085 10.4301 45.6111 8.43742V7.23557C45.6085 5.24331 43.9827 3.62874 41.9767 3.62617H41.9229C39.9164 3.62874 38.2906 5.24331 38.2884 7.23557V8.43699C38.2906 10.4297 39.9164 12.0447 41.9229 12.0468ZM39.8303 7.23599C39.8316 6.08883 40.7678 5.15914 41.9229 5.15786H41.9767C43.1318 5.15914 44.0679 6.08883 44.0692 7.23599V8.43742C44.0679 9.58458 43.1318 10.5143 41.9767 10.5156H41.9229C40.7678 10.5143 39.8316 9.58458 39.8303 8.43742V7.23599Z" fill="#222222"/>
<path d="M46.2267 13.1987H44.7051C44.5089 13.1991 44.3205 13.2734 44.1776 13.4067L42.0601 15.3793L40.0278 13.4153C39.8837 13.2764 39.6909 13.1987 39.49 13.1987H37.875C36.815 13.1987 35.804 13.6413 35.0885 14.418C34.3735 15.1952 34.0207 16.2351 34.1158 17.2836V26.0704C34.1162 27.3671 35.1745 28.4181 36.4802 28.419H36.5078C36.8244 28.4151 37.1372 28.3468 37.4259 28.2181L37.832 44.1071C37.8668 45.0846 38.4769 45.9507 39.3898 46.3181C40.3027 46.6855 41.3477 46.4856 42.058 45.808C42.7695 46.4869 43.8162 46.686 44.73 46.3164C45.6438 45.9472 46.253 45.0782 46.2844 44.099L46.6901 28.231C47.421 28.5403 48.2595 28.4647 48.9225 28.0297C49.5854 27.5944 49.9846 26.8582 49.9846 26.0691V17.284C50.0802 16.2355 49.7269 15.1956 49.0124 14.4189C48.2973 13.6417 47.2863 13.1991 46.2267 13.1987ZM43.787 44.9684C43.2583 44.968 42.8298 44.5424 42.8293 44.0178V28.1011H41.2875V44.0178C41.2887 44.5352 40.8727 44.9586 40.3517 44.9701C39.8307 44.9817 39.3962 44.5771 39.3739 44.0601L38.9144 26.102H45.2033L44.7438 44.0515C44.727 44.5638 44.3032 44.9701 43.787 44.9684ZM48.4471 17.1699C48.4445 17.1956 48.4432 17.2216 48.4432 17.2473V26.0691C48.4432 26.5215 48.0741 26.8881 47.6185 26.8881C47.1629 26.8881 46.7938 26.5215 46.7938 26.0691V24.199L46.8028 23.8436H46.7938V20.1641H45.2519V24.1807L45.242 24.5703H38.8752L38.8559 23.8047H38.8464V20.1641H37.3045V26.0264C37.3149 26.4861 36.9531 26.8689 36.4906 26.8881C36.2707 26.8907 36.0591 26.8057 35.9029 26.6523C35.7463 26.4985 35.6581 26.2891 35.6581 26.0708V17.2477C35.6581 17.2216 35.6568 17.196 35.6542 17.1704C35.5906 16.5466 35.7958 15.9254 36.2191 15.4605C36.642 14.9957 37.2439 14.7304 37.875 14.7304H39.1764L41.5129 16.9871C41.5159 16.9901 41.5202 16.9926 41.5236 16.9956C41.5469 17.0178 41.5714 17.0379 41.5972 17.0567C41.5989 17.058 41.6006 17.0597 41.6024 17.061C41.6308 17.0806 41.66 17.0986 41.6906 17.1144C41.6966 17.1174 41.7026 17.1204 41.7086 17.1234C41.7366 17.1375 41.7659 17.1494 41.7955 17.1601L41.8028 17.1627C41.8343 17.1734 41.8665 17.1819 41.8992 17.1883C41.9065 17.1896 41.9143 17.1909 41.922 17.1922C41.9508 17.1969 41.9801 17.2003 42.0093 17.202C42.0137 17.202 42.018 17.2028 42.0227 17.2033C42.0554 17.2041 42.0881 17.2033 42.1203 17.1998C42.1285 17.1994 42.1363 17.1986 42.144 17.1973C42.1763 17.1939 42.2081 17.1879 42.2395 17.1802C42.2408 17.1802 42.2421 17.1802 42.243 17.1798C42.2774 17.1708 42.3105 17.1597 42.3432 17.146C42.3458 17.1452 42.3488 17.1447 42.3514 17.1434C42.354 17.1426 42.3565 17.1405 42.3591 17.1392C42.4224 17.1118 42.4817 17.0764 42.5355 17.0332C42.5424 17.0272 42.5493 17.0221 42.5562 17.0157C42.563 17.0093 42.5716 17.0033 42.579 16.9965L45.0109 14.7304H46.2276C46.8587 14.7304 47.4602 14.9957 47.8831 15.4605C48.3064 15.9254 48.5112 16.5466 48.4475 17.1699H48.4471Z" fill="#222222"/>
<path d="M24.8722 12.0468H24.926C26.9321 12.0447 28.5583 10.4301 28.5604 8.43742V7.23557C28.5583 5.24331 26.9321 3.62874 24.926 3.62617H24.8722C22.8661 3.62874 21.2404 5.24331 21.2378 7.23557V8.43699C21.2399 10.4297 22.8657 12.0447 24.8722 12.0468ZM22.7797 7.23599C22.781 6.08883 23.7171 5.15914 24.8722 5.15786H24.926C26.0811 5.15914 27.0173 6.08883 27.0186 7.23599V8.43742C27.0173 9.58458 26.0811 10.5143 24.926 10.5156H24.8722C23.7171 10.5143 22.781 9.58458 22.7797 8.43742V7.23557V7.23599Z" fill="#222222"/>
<path d="M29.1765 13.1987H27.6544C27.4582 13.1991 27.2698 13.2734 27.127 13.4067L25.0095 15.3798L22.9771 13.4153C22.8334 13.2764 22.6403 13.1987 22.4398 13.1987H20.8248C19.7647 13.1987 18.7537 13.6413 18.0387 14.418C17.3233 15.1952 16.9705 16.2351 17.0656 17.2836V26.0704C17.066 27.3671 18.1243 28.4181 19.43 28.419H19.4576C19.7742 28.4151 20.087 28.3468 20.3756 28.2181L20.7822 44.1071C20.8166 45.0851 21.4271 45.9511 22.34 46.3181C23.2529 46.6855 24.2979 46.4856 25.0082 45.808C25.7193 46.4869 26.7665 46.686 27.6802 46.3168C28.5936 45.9472 29.2028 45.0782 29.2346 44.099L29.6398 28.231C30.3712 28.5403 31.2097 28.4647 31.8727 28.0297C32.5356 27.5948 32.9344 26.8582 32.9344 26.0691V17.284C33.0299 16.2355 32.6772 15.1956 31.9621 14.4185C31.2471 13.6417 30.2361 13.1991 29.1765 13.1987ZM26.7363 44.9684C26.208 44.968 25.7795 44.5424 25.7791 44.0178V28.1011H24.2372V44.0178C24.2368 44.5343 23.8212 44.956 23.3011 44.9676C22.781 44.9791 22.3469 44.5762 22.3232 44.0601L21.8642 26.102H28.1526L27.6931 44.0515C27.6768 44.5638 27.2526 44.9701 26.7363 44.9684ZM31.3968 17.1699C31.3938 17.1956 31.3925 17.2216 31.3925 17.2473V26.0691C31.3925 26.5215 31.0234 26.8881 30.5678 26.8881C30.1122 26.8881 29.7431 26.5215 29.7431 26.0691V24.199L29.7521 23.8436H29.7431V20.1641H28.2012V24.1807L28.1913 24.5703H21.825L21.8052 23.8047H21.7962V20.1641H20.2543V26.0264C20.2646 26.4861 19.9024 26.8689 19.4403 26.8881C19.2205 26.8907 19.0084 26.8057 18.8522 26.6523C18.6957 26.4985 18.6079 26.2891 18.6075 26.0708V17.2477C18.6075 17.2216 18.6062 17.196 18.6036 17.1704C18.5399 16.5466 18.7456 15.9254 19.1685 15.4605C19.5918 14.9952 20.1937 14.7299 20.8248 14.7304H22.1266L24.4627 16.9871C24.4661 16.9901 24.47 16.9926 24.4738 16.9956C24.4966 17.0174 24.5212 17.0379 24.547 17.0567C24.5487 17.058 24.5504 17.0597 24.5526 17.061C24.5805 17.0806 24.6098 17.0986 24.6399 17.114C24.6459 17.1174 24.652 17.1204 24.6584 17.1234C24.6864 17.1375 24.7152 17.1494 24.7445 17.1597C24.747 17.161 24.7496 17.1623 24.7526 17.1631C24.784 17.1734 24.8159 17.1819 24.8486 17.1883C24.8563 17.1896 24.8636 17.1909 24.8714 17.1922C24.9002 17.1973 24.9294 17.2003 24.9587 17.202C24.963 17.202 24.9677 17.2028 24.972 17.2033C25.0047 17.2041 25.0374 17.2033 25.0701 17.1998C25.0779 17.1994 25.0856 17.1986 25.0934 17.1973C25.1261 17.1939 25.1579 17.1879 25.1893 17.1802L25.1927 17.1798C25.2267 17.1708 25.2603 17.1597 25.293 17.146C25.2956 17.1452 25.2981 17.1447 25.3007 17.1434C25.3033 17.1426 25.3063 17.1405 25.3089 17.1392C25.3721 17.1118 25.4315 17.0764 25.4853 17.0332C25.4922 17.0272 25.499 17.0221 25.5059 17.0157C25.5128 17.0093 25.5214 17.0033 25.5283 16.9965L27.9603 14.7304H29.1769C29.8081 14.7304 30.4095 14.9957 30.8328 15.4605C31.2557 15.9254 31.4609 16.5466 31.3968 17.1699Z" fill="#222222"/>
<path d="M20.136 5.31081V4.10939C20.1339 2.11671 18.5081 0.502136 16.5016 0.5H16.4482C14.4417 0.502136 12.8159 2.11671 12.8138 4.10939V5.31081C12.8159 7.30307 14.4417 8.91764 16.4482 8.92021H16.5016C18.5081 8.91807 20.1339 7.30307 20.136 5.31081ZM18.5941 5.31081C18.5928 6.45798 17.6571 7.38767 16.5016 7.38895H16.4482C15.2931 7.38767 14.3569 6.45798 14.3557 5.31081V4.10939C14.3569 2.96223 15.2931 2.03254 16.4482 2.03126H16.5016C17.6571 2.03254 18.5928 2.96223 18.5941 4.10939V5.31081Z" fill="#222222"/>
<path d="M37.1867 5.31081V4.10939C37.1845 2.11671 35.5587 0.502136 33.5522 0.5H33.4984C31.4923 0.502136 29.8666 2.11671 29.864 4.10939V5.31081C29.8666 7.30307 31.4923 8.91764 33.4984 8.92021H33.5522C35.5587 8.91807 37.1845 7.30307 37.1867 5.31081ZM35.6448 5.31081C35.6435 6.45798 34.7073 7.38767 33.5522 7.38895H33.4984C32.3433 7.38767 31.4072 6.45798 31.4059 5.31081V4.10939C31.4072 2.96223 32.3433 2.03254 33.4984 2.03126H33.5522C34.7073 2.03254 35.6435 2.96223 35.6448 4.10939V5.31081Z" fill="#222222"/>
</svg>
