<svg width="48" height="47" viewBox="0 0 48 47" fill="none" xmlns="http://www.w3.org/2000/svg">
<path d="M41 36.9163H25C24.448 36.9163 24 37.3457 24 37.8747C24 38.4037 24.448 38.8331 25 38.8331H41.0001C41.5521 38.8331 42.0001 38.4037 42.0001 37.8747C42.0001 37.3457 41.552 36.9163 41 36.9163Z" fill="#222222"/>
<path d="M41 40.7498H25C24.448 40.7498 24 41.1791 24 41.7082C24 42.2372 24.448 42.6666 25 42.6666H41.0001C41.5521 42.6666 42.0001 42.2372 42.0001 41.7082C42 41.1791 41.552 40.7498 41 40.7498Z" fill="#222222"/>
<path d="M7.00003 36.9163C5.346 36.9163 4.00003 38.2063 4.00003 39.7914C4.00003 41.3766 5.346 42.6666 7.00003 42.6666C8.65406 42.6666 10 41.3766 10 39.7914C10 38.2063 8.65397 36.9163 7.00003 36.9163ZM7.00003 40.7498C6.44803 40.7498 6 40.3204 6 39.7913C6 39.2623 6.44803 38.8329 7.00003 38.8329C7.55203 38.8329 8.00006 39.2623 8.00006 39.7913C7.99997 40.3205 7.55203 40.7498 7.00003 40.7498Z" fill="#222222"/>
<path d="M7.00003 25.4158C5.346 25.4158 4.00003 26.7058 4.00003 28.2909C4.00003 29.8761 5.346 31.1661 7.00003 31.1661C8.65406 31.1661 10 29.8761 10 28.2909C10 26.7058 8.65397 25.4158 7.00003 25.4158ZM7.00003 29.2493C6.44803 29.2493 6 28.8199 6 28.2909C6 27.7618 6.44803 27.3325 7.00003 27.3325C7.55203 27.3325 8.00006 27.7618 8.00006 28.2909C8.00006 28.8199 7.55203 29.2493 7.00003 29.2493Z" fill="#222222"/>
<path d="M41 17.7488H25C24.448 17.7488 24 18.1781 24 18.7072C24 19.2362 24.448 19.6656 25 19.6656H41.0001C41.5521 19.6656 42.0001 19.2362 42.0001 18.7072C42.0001 18.1781 41.552 17.7488 41 17.7488Z" fill="#222222"/>
<path d="M48 18.7072V14.8736C48 13.9536 47.714 13.1007 47.242 12.3684C47.2281 12.3416 47.226 12.3109 47.2101 12.286L41.026 2.75985C40.108 1.34529 38.52 0.5 36.78 0.5H11.226C9.48403 0.5 7.89797 1.34529 6.97997 2.75985L0.796031 12.286C0.786 12.3014 0.786 12.3186 0.776062 12.3359C0.292031 13.0738 0 13.9402 0 14.8736V18.7072C0 20.2789 0.805969 21.6667 2.03203 22.5407C0.805969 23.4166 0 24.8024 0 26.3741V30.2077C0 31.7794 0.805969 33.1672 2.03203 34.0412C0.805969 34.9171 0 36.3029 0 37.8746V41.7082C0 44.3494 2.244 46.5 4.99997 46.5H42.9999C45.7559 46.5 47.9999 44.3494 47.9999 41.7082V37.8746C47.9999 36.3029 47.1939 34.9151 45.9679 34.0411C47.194 33.1672 48 31.7794 48 30.2077V26.3741C48 24.8024 47.194 23.4146 45.968 22.5406C47.194 21.6667 48 20.2808 48 18.7072ZM8.67797 3.77189C9.228 2.92274 10.1799 2.41483 11.2239 2.41483H36.7779C37.8219 2.41483 38.774 2.92274 39.3239 3.77189L43.4499 10.1259C43.2999 10.1125 43.154 10.0818 42.9999 10.0818H4.99997C4.84594 10.0818 4.70194 10.1124 4.55194 10.1259L8.67797 3.77189ZM46 37.8746V41.7082C46 43.2933 44.6541 44.5833 43 44.5833H4.99997C3.34594 44.5833 1.99997 43.2933 1.99997 41.7082V37.8746C1.99997 36.2895 3.34594 34.9995 4.99997 34.9995H42.9999C44.654 34.9995 46 36.2895 46 37.8746ZM46 26.3741V30.2077C46 31.7928 44.6541 33.0828 43 33.0828H4.99997C3.34594 33.0828 1.99997 31.7928 1.99997 30.2077V26.3741C1.99997 24.789 3.34594 23.499 4.99997 23.499H42.9999C44.654 23.499 46 24.789 46 26.3741ZM46 18.7072C46 20.2924 44.6541 21.5823 43 21.5823H4.99997C3.34594 21.5823 1.99997 20.2924 1.99997 18.7072V14.8736C1.99997 13.2885 3.34594 11.9985 4.99997 11.9985H42.9999C44.654 11.9985 45.9999 13.2885 45.9999 14.8736V18.7072H46Z" fill="#222222"/>
<path d="M41 13.9153H25C24.448 13.9153 24 14.3447 24 14.8737C24 15.4028 24.448 15.8321 25 15.8321H41.0001C41.5521 15.8321 42.0001 15.4028 42.0001 14.8737C42.0001 14.3447 41.552 13.9153 41 13.9153Z" fill="#222222"/>
<path d="M41 29.2493H25C24.448 29.2493 24 29.6786 24 30.2077C24 30.7367 24.448 31.1661 25 31.1661H41.0001C41.5521 31.1661 42.0001 30.7367 42.0001 30.2077C42.0001 29.6786 41.552 29.2493 41 29.2493Z" fill="#222222"/>
<path d="M41 25.4158H25C24.448 25.4158 24 25.8452 24 26.3742C24 26.9032 24.448 27.3326 25 27.3326H41.0001C41.5521 27.3326 42.0001 26.9032 42.0001 26.3742C42.0001 25.8452 41.552 25.4158 41 25.4158Z" fill="#222222"/>
<path d="M7.00003 13.9153C5.346 13.9153 4.00003 15.2053 4.00003 16.7904C4.00003 18.3756 5.346 19.6656 7.00003 19.6656C8.65406 19.6656 10 18.3756 10 16.7904C10 15.2053 8.65397 13.9153 7.00003 13.9153ZM7.00003 17.7488C6.44803 17.7488 6 17.3194 6 16.7904C6 16.2613 6.44803 15.832 7.00003 15.832C7.55203 15.832 8.00006 16.2613 8.00006 16.7904C8.00006 17.3194 7.55203 17.7488 7.00003 17.7488Z" fill="#222222"/>
</svg>
