<svg width="46" height="47" viewBox="0 0 46 47" fill="none" xmlns="http://www.w3.org/2000/svg">
<path d="M36.6958 36.9168C33.9997 36.9168 31.8045 39.0673 31.8045 41.7084C31.8045 44.3495 33.9997 46.5 36.6958 46.5C39.3918 46.5 41.5871 44.3495 41.5871 41.7084C41.5871 39.0673 39.3918 36.9168 36.6958 36.9168ZM36.6958 44.5834C35.0777 44.5834 33.761 43.2935 33.761 41.7084C33.761 40.1233 35.0777 38.8334 36.6958 38.8334C38.3139 38.8334 39.6306 40.1233 39.6306 41.7084C39.6306 43.2935 38.3138 44.5834 36.6958 44.5834Z" fill="#222222"/>
<path d="M17.1304 36.9168C14.4344 36.9168 12.2392 39.0673 12.2392 41.7084C12.2392 44.3495 14.4344 46.5 17.1304 46.5C19.8265 46.5 22.0217 44.3495 22.0217 41.7084C22.0217 39.0673 19.8265 36.9168 17.1304 36.9168ZM17.1304 44.5834C15.5124 44.5834 14.1957 43.2935 14.1957 41.7084C14.1957 40.1233 15.5124 38.8334 17.1304 38.8334C18.7485 38.8334 20.0652 40.1233 20.0652 41.7084C20.0652 43.2935 18.7485 44.5834 17.1304 44.5834Z" fill="#222222"/>
<path d="M40.6088 33.0835H18.0285C15.7041 33.0835 13.6889 31.4639 13.233 29.231L8.30654 5.10427C8.21455 4.65577 7.8135 4.33377 7.34787 4.33377H1.47829C0.938293 4.33377 0.5 4.76313 0.5 5.29213C0.5 5.82112 0.938293 6.25048 1.47829 6.25048H6.54567L11.3137 29.6086C11.9516 32.7327 14.7748 35.0002 18.0285 35.0002H40.6088C41.1488 35.0002 41.5871 34.5708 41.5871 34.0418C41.5871 33.5129 41.1488 33.0835 40.6088 33.0835Z" fill="#222222"/>
<path d="M45.2556 10.4076C45.0697 10.2025 44.8036 10.0837 44.5219 10.0837H9.30437C8.76437 10.0837 8.32608 10.5131 8.32608 11.0421C8.32608 11.5711 8.76437 12.0004 9.30437 12.0004H43.4144L42.0233 22.8985C41.8395 24.3341 40.5872 25.4169 39.1101 25.4169H12.2392C11.6992 25.4169 11.2609 25.8463 11.2609 26.3753C11.2609 26.9043 11.6992 27.3336 12.2392 27.3336H39.1101C41.5714 27.3336 43.659 25.53 43.9642 23.1362L45.4923 11.1609C45.5275 10.8887 45.4415 10.6127 45.2556 10.4076Z" fill="#222222"/>
<path d="M27.6037 10.3636L17.8211 0.78031C17.4396 0.406563 16.8194 0.406563 16.4378 0.78031L10.5683 6.53025C10.1867 6.904 10.1867 7.51161 10.5683 7.88535L14.4813 11.7187C14.8629 12.0924 15.4831 12.0924 15.8646 11.7187C16.2462 11.3449 16.2462 10.7373 15.8646 10.3636L12.6442 7.20875L17.1304 2.8139L26.2205 11.7206C26.4123 11.9065 26.6626 12.0004 26.9131 12.0004C27.1636 12.0004 27.414 11.9065 27.6038 11.7187C27.9852 11.3448 27.9852 10.7373 27.6037 10.3636Z" fill="#222222"/>
<path d="M32.7827 0.500449H24.9566C24.4166 0.500449 23.9783 0.929808 23.9783 1.4588V9.12536C23.9783 9.65436 24.4166 10.0837 24.9566 10.0837C25.4966 10.0837 25.9349 9.65436 25.9349 9.12536V2.41716H31.8045V11.0421C31.8045 11.5711 32.2428 12.0004 32.7828 12.0004C33.3228 12.0004 33.7611 11.5711 33.7611 11.0421V1.4588C33.761 0.929808 33.3227 0.500449 32.7827 0.500449Z" fill="#222222"/>
<path d="M42.0684 1.94369C40.1079 0.0232041 36.9188 0.0232041 34.9584 1.94369L32.0921 4.75154C31.7106 5.12529 31.7106 5.7329 32.0921 6.10664C32.4736 6.48039 33.0939 6.48039 33.4754 6.10664L36.3417 3.29879C37.5391 2.12768 39.4878 2.12768 40.6871 3.30265C41.2682 3.87189 41.5871 4.62514 41.5871 5.43013C41.5871 6.23512 41.2682 6.99025 40.6871 7.55761L37.8208 10.3655C37.4393 10.7392 37.4393 11.3468 37.8208 11.7206C38.0126 11.9065 38.263 12.0004 38.5134 12.0004C38.7639 12.0004 39.0143 11.9065 39.2041 11.7187L42.0704 8.91082C43.0193 7.98122 43.5437 6.74309 43.5437 5.42824C43.5436 4.11339 43.0192 2.87715 42.0684 1.94369Z" fill="#222222"/>
</svg>
