<svg width="42" height="47" viewBox="0 0 42 47" fill="none" xmlns="http://www.w3.org/2000/svg">
<path d="M37.2272 0.5H21.9546C18.27 0.5 15.2727 3.50914 15.2727 7.20836V28.2917C15.2727 28.8207 15.7004 29.2501 16.2273 29.2501C16.7542 29.2501 17.1819 28.8207 17.1819 28.2917V7.20836C17.1819 4.56723 19.3239 2.41673 21.9546 2.41673H33.411C32.8115 3.21786 32.4545 4.21261 32.4545 5.29173V33.0834H25.7727C25.2458 33.0834 24.8181 33.5127 24.8181 34.0417C24.8181 34.5707 25.2458 35.0001 25.7727 35.0001H33.409C33.9359 35.0001 34.3636 34.5707 34.3636 34.0417V5.29173C34.3636 3.70661 35.6484 2.41673 37.2272 2.41673C37.7541 2.41673 38.1818 1.98736 38.1818 1.45836C38.1818 0.929363 37.7541 0.5 37.2272 0.5Z" fill="#222222"/>
<path d="M29.5909 27.3334H12.4091C8.72459 27.3334 5.72726 30.3425 5.72726 34.0417V39.7917C5.72726 42.4329 3.58527 44.5834 0.954574 44.5834C0.427666 44.5834 0 45.0127 0 45.5417C0 46.0706 0.427666 46.5 0.954574 46.5H20.0454C23.73 46.5 26.7273 43.4909 26.7273 39.7916V32.125C26.7273 30.5399 28.0121 29.25 29.5909 29.25C30.1178 29.25 30.5455 28.8206 30.5455 28.2916C30.5455 27.7626 30.1178 27.3334 29.5909 27.3334ZM24.8182 32.125V39.7916C24.8182 42.4328 22.6762 44.5833 20.0455 44.5833H5.62614C6.86708 43.3643 7.63641 41.668 7.63641 39.7916V34.0416C7.63641 31.4005 9.77841 29.25 12.4091 29.25H25.7747C25.1752 30.0511 24.8182 31.0459 24.8182 32.125Z" fill="#222222"/>
<path d="M29.5909 27.3334H27.6818C27.1549 27.3334 26.7273 27.7627 26.7273 28.2917C26.7273 28.8207 27.1549 29.25 27.6818 29.25H29.5909C31.1697 29.25 32.4545 30.5399 32.4545 32.125V34.0416C32.4545 34.5706 32.8822 35 33.4091 35C33.936 35 34.3637 34.5706 34.3637 34.0416V32.125C34.3636 29.4839 32.2216 27.3334 29.5909 27.3334Z" fill="#222222"/>
<path d="M37.2272 0.5C36.7003 0.5 36.2726 0.929363 36.2726 1.45836C36.2726 1.98736 36.7003 2.41673 37.2272 2.41673C38.8061 2.41673 40.0909 3.70661 40.0909 5.29173V6.25H33.409C32.8822 6.25 32.4545 6.67936 32.4545 7.20836C32.4545 7.73736 32.8822 8.16673 33.4091 8.16673H41.0454C41.5723 8.16673 42 7.73736 42 7.20836V5.29164C42 2.6505 39.858 0.5 37.2272 0.5Z" fill="#222222"/>
<path d="M29.5909 6.25H20.0454C19.5185 6.25 19.0909 6.67936 19.0909 7.20836C19.0909 7.73736 19.5185 8.16673 20.0454 8.16673H29.5909C30.1178 8.16673 30.5455 7.73736 30.5455 7.20836C30.5455 6.67936 30.1178 6.25 29.5909 6.25Z" fill="#222222"/>
<path d="M29.5909 12H20.0454C19.5185 12 19.0909 12.4294 19.0909 12.9584C19.0909 13.4874 19.5185 13.9167 20.0454 13.9167H29.5909C30.1178 13.9167 30.5455 13.4874 30.5455 12.9584C30.5455 12.4294 30.1178 12 29.5909 12Z" fill="#222222"/>
<path d="M29.5909 17.75H20.0454C19.5185 17.75 19.0909 18.1794 19.0909 18.7084C19.0909 19.2374 19.5185 19.6667 20.0454 19.6667H29.5909C30.1178 19.6667 30.5455 19.2374 30.5455 18.7084C30.5455 18.1794 30.1178 17.75 29.5909 17.75Z" fill="#222222"/>
<path d="M29.5909 23.5H20.0454C19.5185 23.5 19.0909 23.9294 19.0909 24.4584C19.0909 24.9874 19.5185 25.4167 20.0454 25.4167H29.5909C30.1178 25.4167 30.5455 24.9874 30.5455 24.4584C30.5455 23.9294 30.1178 23.5 29.5909 23.5Z" fill="#222222"/>
<path d="M21.9546 33.0834H10.5C9.97314 33.0834 9.54547 33.5127 9.54547 34.0417C9.54547 34.5707 9.97314 35.0001 10.5 35.0001H21.9546C22.4815 35.0001 22.9091 34.5707 22.9091 34.0417C22.9091 33.5126 22.4815 33.0834 21.9546 33.0834Z" fill="#222222"/>
<path d="M21.9546 38.8334H10.5C9.97314 38.8334 9.54547 39.2627 9.54547 39.7917C9.54547 40.3207 9.97314 40.7501 10.5 40.7501H21.9546C22.4815 40.7501 22.9091 40.3207 22.9091 39.7917C22.9091 39.2626 22.4815 38.8334 21.9546 38.8334Z" fill="#222222"/>
</svg>
