<svg width="20" height="19" viewBox="0 0 20 19" fill="none" xmlns="http://www.w3.org/2000/svg">
<path d="M18.9763 9.58003L18.0402 8.79022V16.244C18.0402 17.4983 16.9896 18.5186 15.6984 18.5186H12.8851C13.1213 18.2836 13.3716 18.0224 13.6234 17.7401C13.844 17.4927 14.0497 17.2467 14.241 17.0023H15.6982C16.1287 17.0023 16.4789 16.6621 16.4789 16.244V7.47337L10 2.0084L3.52097 7.47337V16.244C3.52097 16.6621 3.87115 17.0023 4.30161 17.0023H5.75897C5.95016 17.2465 6.15585 17.4927 6.37665 17.7401C6.62842 18.0223 6.87866 18.2836 7.11472 18.5186H4.30161C3.01041 18.5186 1.95984 17.4983 1.95984 16.244V8.79022L1.02356 9.58003L0 8.43511L10 0L20 8.43511L18.9763 9.58003ZM10 11.2742C9.35333 11.2742 8.82904 11.7833 8.82904 12.4114C8.82904 13.0396 9.35333 13.5488 10 13.5488C10.6467 13.5488 11.171 13.0396 11.171 12.4114C11.171 11.7833 10.6467 11.2742 10 11.2742ZM14.4875 12.6415C14.4875 13.8452 13.7997 15.2264 12.4434 16.7471C11.4832 17.8237 10.5327 18.5788 10.4927 18.6104L10 19L9.50714 18.6104C9.46716 18.5788 8.51669 17.8237 7.55646 16.7471C6.2001 15.2264 5.51239 13.8452 5.51239 12.6415V12.4144C5.51239 10.0109 7.52548 8.05554 10 8.05554C12.4744 8.05554 14.4875 10.0109 14.4875 12.4144V12.6415ZM12.9263 12.4144C12.9263 10.8471 11.6135 9.57188 10 9.57188C8.38638 9.57188 7.07367 10.8471 7.07367 12.4144V12.6416C7.07367 13.4466 7.66418 14.5521 8.73642 15.7542C9.20135 16.2754 9.66721 16.7164 10.0021 17.0158C11.1195 16.0205 12.9262 14.1034 12.9262 12.6416V12.4144H12.9263Z" fill="#FFC901"/>
</svg>
