<svg width="23" height="23" viewBox="0 0 23 23" fill="none" xmlns="http://www.w3.org/2000/svg">
<path d="M22.7894 13.8668L18.4769 9.55429C18.0258 9.10305 17.25 9.42267 17.25 10.0625V11.8877C16.1196 11.9771 15.0262 12.2784 14.0156 12.7749V5.74999H15.8125C16.451 5.74999 16.7729 4.97513 16.3207 4.52304L12.0082 0.210538C11.7275 -0.0701792 11.2724 -0.0701792 10.9917 0.210538L6.67925 4.52304C6.22801 4.97424 6.54772 5.74999 7.18749 5.74999H8.98437V9.89988C7.97381 9.4034 6.88041 9.10211 5.74999 9.01267V7.18749C5.74999 6.54893 4.97514 6.22711 4.523 6.67925L0.210504 10.9917C-0.0701679 11.2725 -0.0701679 11.7275 0.210504 12.0082L4.523 16.3207C4.97428 16.772 5.74999 16.4522 5.74999 15.8125V14.0804C7.5426 14.4078 8.98437 15.9845 8.98437 17.9687V22.2812C8.98437 22.6782 9.30619 23 9.70312 23C10.1 23 10.4219 22.6782 10.4219 22.2812V17.9687C10.4219 14.9894 8.011 12.5781 5.03125 12.5781C4.63432 12.5781 4.3125 12.8999 4.3125 13.2969V14.0773L1.7352 11.5L4.3125 8.92274V9.70312C4.3125 10.1 4.63432 10.4219 5.03125 10.4219C6.51075 10.4219 7.98899 10.8469 9.29815 11.7433C9.77005 12.066 10.4205 11.7278 10.4218 11.1518C10.4218 11.0302 10.4219 11.5689 10.4219 5.03124C10.4219 4.63431 10.1 4.31249 9.70312 4.31249H8.92269L11.5 1.73523L14.0773 4.31249H13.2969C12.8999 4.31249 12.5781 4.63431 12.5781 5.03124C12.5781 5.07109 12.5781 14.0056 12.5782 14.0267C12.5793 14.603 13.2288 14.9417 13.7019 14.6182C14.9154 13.779 16.4002 13.2969 17.9687 13.2969C18.3657 13.2969 18.6875 12.975 18.6875 12.5781V11.7977L21.2648 14.375L18.6875 16.9523V16.1719C18.6875 15.7749 18.3657 15.4531 17.9687 15.4531C14.9894 15.4531 12.5781 17.8639 12.5781 20.8438V22.2812C12.5781 22.6782 12.8999 23 13.2969 23C13.6938 23 14.0156 22.6782 14.0156 22.2812V20.8438C14.0156 18.859 15.4578 17.2827 17.25 16.9554V18.6875C17.25 19.3256 18.0246 19.6482 18.4769 19.1957L22.7894 14.8832C23.0702 14.6026 23.0702 14.1475 22.7894 13.8668Z" fill="#FFC901"/>
</svg>
