<svg width="969" height="992" viewBox="0 0 969 992" fill="none" xmlns="http://www.w3.org/2000/svg">
<path opacity="0.05" d="M377.156 924.146C284.856 980.928 -2.81027 1079.3 -204.603 821.532C-465.469 488.304 -731.528 470.944 -968.239 674.95M391.925 907.651C299.625 964.432 11.959 1062.81 -189.834 805.037C-450.7 471.809 -716.759 454.448 -953.47 658.454M406.695 891.155C314.395 947.937 26.7284 1046.31 -175.065 788.541C-435.931 455.313 -701.989 437.953 -938.7 641.959M421.464 874.66C329.164 931.442 41.4977 1029.81 -160.295 772.046C-421.161 438.818 -687.22 421.458 -923.931 625.464M436.233 858.165C343.933 914.946 56.267 1013.32 -145.526 755.55C-406.392 422.322 -672.451 404.962 -909.162 608.968M451.003 841.669C358.703 898.451 71.0363 996.824 -130.757 739.055C-391.623 405.827 -657.681 388.467 -894.392 592.473M465.772 825.174C373.472 881.956 85.8056 980.328 -115.987 722.56C-376.854 389.332 -642.912 371.972 -879.623 575.977M480.541 808.679C388.241 865.46 100.575 963.833 -101.218 706.064C-362.084 372.836 -628.143 355.476 -864.854 559.482M495.311 792.183C403.01 848.965 115.344 947.338 -86.4488 689.569C-347.315 356.341 -613.373 338.981 -850.084 542.987M510.08 775.688C417.78 832.47 130.114 930.842 -71.6795 673.074C-332.546 339.846 -598.604 322.485 -835.315 526.491M524.849 759.193C432.549 815.974 144.883 914.347 -56.9101 656.578C-317.776 323.35 -583.835 305.99 -820.546 509.996M539.619 742.697C447.318 799.479 159.652 897.852 -42.1408 640.083C-303.007 306.855 -569.065 289.495 -805.777 493.501M554.388 726.202C462.088 782.983 174.422 881.356 -27.3714 623.587C-288.238 290.36 -554.296 272.999 -791.007 477.005M569.157 709.706C476.857 766.488 189.191 864.861 -12.6022 607.092C-273.468 273.864 -539.527 256.504 -776.238 460.51M583.927 693.211C491.626 749.993 203.96 848.365 2.16717 590.597C-258.699 257.369 -524.757 240.009 -761.468 444.014M598.696 676.716C506.396 733.497 218.73 831.87 16.9364 574.101C-243.93 240.873 -509.988 223.513 -746.699 427.519M613.465 660.22C521.165 717.002 233.499 815.375 31.7058 557.606C-229.16 224.378 -495.219 207.018 -731.93 411.024M628.235 643.725C535.934 700.507 248.268 798.879 46.4751 541.111C-214.391 207.883 -480.449 190.523 -717.16 394.528M643.004 627.23C550.704 684.011 263.037 782.384 61.2444 524.615C-199.622 191.387 -465.68 174.027 -702.391 378.033M657.773 610.734C565.473 667.516 277.807 765.889 76.0138 508.12C-184.852 174.892 -450.911 157.532 -687.622 361.538M672.543 594.239C580.242 651.021 292.576 749.393 90.7831 491.625C-170.083 158.397 -436.141 141.037 -672.853 345.042M687.312 577.744C595.012 634.525 307.345 732.898 105.552 475.129C-155.314 141.901 -421.372 124.541 -658.083 328.547M702.081 561.248C609.781 618.03 322.115 716.402 120.322 458.634C-140.544 125.406 -406.603 108.046 -643.314 312.052M716.851 544.753C624.55 601.534 336.884 699.907 135.091 442.138C-125.775 108.911 -391.834 91.5503 -628.545 295.556M731.62 528.257C639.32 585.039 351.653 683.412 149.86 425.643C-111.006 92.4152 -377.064 75.055 -613.775 279.061M746.389 511.762C654.089 568.544 366.423 666.916 164.63 409.148C-96.2363 75.9198 -362.295 58.5597 -599.006 262.565M761.159 495.267C668.858 552.048 381.192 650.421 179.399 392.652C-81.467 59.4244 -347.526 42.0643 -584.237 246.07M775.928 478.771C683.628 535.553 395.961 633.926 194.168 376.157C-66.6977 42.9291 -332.756 25.569 -569.467 229.575M790.697 462.276C698.397 519.058 410.731 617.43 208.938 359.662C-51.9284 26.4338 -317.987 9.07349 -554.698 213.079M805.467 445.781C713.166 502.562 425.5 600.935 223.707 343.166C-37.1591 9.93827 -303.218 -7.42182 -539.929 196.584M820.236 429.285C727.936 486.067 440.269 584.44 238.476 326.671C-22.3898 -6.55704 -288.448 -23.9172 -525.159 180.089M835.005 412.79C742.705 469.571 455.039 567.944 253.246 310.176C-7.62044 -23.0524 -273.679 -40.4126 -510.39 163.593M849.775 396.295C757.474 453.076 469.808 551.449 268.015 293.68C7.14888 -39.5478 -258.91 -56.9079 -495.621 147.098M864.544 379.799C772.244 436.581 484.577 534.953 282.784 277.185C21.9182 -56.0431 -244.14 -73.4032 -480.851 130.603M879.313 363.304C787.013 420.085 499.347 518.458 297.554 260.689C36.6875 -72.5386 -229.371 -89.8987 -466.082 114.107M894.082 346.808C801.782 403.59 514.116 501.963 312.323 244.194C51.4569 -89.0338 -214.602 -106.394 -451.313 97.6118M908.852 330.313C816.552 387.095 528.885 485.467 327.092 227.699C66.2262 -105.529 -199.832 -122.889 -436.543 81.1165M923.621 313.818C831.321 370.599 543.655 468.972 341.862 211.203C80.9955 -122.025 -185.063 -139.385 -421.774 64.621M938.39 297.322C846.09 354.104 558.424 452.477 356.631 194.708C95.7649 -138.52 -170.294 -155.88 -407.005 48.1257M953.16 280.827C860.859 337.609 573.193 435.981 371.4 178.213C110.534 -155.015 -155.524 -172.375 -392.235 31.6304M967.929 264.332C875.629 321.113 587.963 419.486 386.17 161.717C125.303 -171.511 -140.755 -188.871 -377.466 15.1349" stroke="#222222"/>
</svg>
