<svg width="20" height="20" viewBox="0 0 20 20" fill="none" xmlns="http://www.w3.org/2000/svg">
<path d="M20 14.238L18.0495 11.3129L17.5619 11.6379C16.9168 12.0679 16.1662 12.3229 15.3982 12.3903C16.6425 11.508 17.6649 10.323 18.3585 8.93656L18.8676 7.91742L15.7222 6.3468L15.2129 7.36496C14.219 9.35172 12.2216 10.5859 10 10.5859C7.77852 10.5859 5.78104 9.35195 4.78722 7.36582L4.27812 6.34664L1.13272 7.91727L1.64174 8.93742C2.33518 10.3234 3.35744 11.5082 4.60163 12.3902C3.83376 12.3228 3.0832 12.0678 2.43821 11.6379L1.95056 11.3129L0 14.238L0.48765 14.5631C1.80689 15.4424 3.41593 15.9266 5.0184 15.9266C5.31159 15.9266 5.60541 15.9099 5.89751 15.8779V20H14.1025V15.8779C14.3946 15.9099 14.6884 15.9266 14.9816 15.9266C16.5841 15.9266 18.1931 15.4423 19.5124 14.563L20 14.238ZM5.0184 14.7548C3.84239 14.7548 2.66314 14.4511 1.63979 13.8916L2.29271 12.9124C3.39143 13.489 4.67051 13.7005 5.89751 13.5125V14.6981C5.60592 14.7355 5.31179 14.7548 5.0184 14.7548ZM12.9304 12.4005V18.8281H7.06965V12.4005C6.92415 12.3068 4.23385 11.4694 2.70464 8.4423L3.75327 7.91867C4.95198 10.2877 7.34252 11.7578 10 11.7578C12.6574 11.7578 15.0478 10.2877 16.2465 7.91852L17.2951 8.44215C15.773 11.4548 13.0797 12.3043 12.9304 12.4005ZM14.9816 14.7548C14.6882 14.7548 14.3941 14.7355 14.1025 14.6981V13.5125C15.3295 13.7004 16.6086 13.489 17.7073 12.9124L18.3602 13.8915C17.3369 14.4511 16.1576 14.7548 14.9816 14.7548Z" fill="#FFC901"/>
<path d="M12.9304 7.65625C12.9304 6.04082 11.6158 4.72656 10 4.72656C8.3842 4.72656 7.06965 6.04082 7.06965 7.65625C7.06965 9.27168 8.3842 10.5859 10 10.5859C11.6158 10.5859 12.9304 9.27168 12.9304 7.65625ZM10 9.41406C9.03052 9.41406 8.24179 8.62551 8.24179 7.65625C8.24179 6.68699 9.03052 5.89844 10 5.89844C10.9695 5.89844 11.7582 6.68699 11.7582 7.65625C11.7582 8.62551 10.9695 9.41406 10 9.41406Z" fill="#FFC901"/>
<path d="M9.41393 0H10.5861V3.55469H9.41393V0Z" fill="#FFC901"/>
<path d="M3.78302 2.85633L4.61172 2.02781L7.09783 4.51336L6.26913 5.34188L3.78302 2.85633Z" fill="#FFC901"/>
<path d="M12.8992 4.51431L15.3853 2.02876L16.214 2.85728L13.7279 5.34283L12.8992 4.51431Z" fill="#FFC901"/>
</svg>
