<svg width="20" height="20" viewBox="0 0 20 20" fill="none" xmlns="http://www.w3.org/2000/svg">
<path d="M10 0C15.4379 0 20 4.39926 20 10V10.8333H10.8333V16.6667C10.8333 18.5076 9.34095 20 7.5 20C5.71484 20 4.16667 18.5574 4.16667 16.6667V15.8333H5.83333V16.6667C5.83333 17.5871 6.57952 18.3333 7.5 18.3333C8.37863 18.3333 9.16667 17.618 9.16667 16.6667V10.8333H0V10C0 4.47715 4.47715 0 10 0ZM10 1.66667C5.78766 1.66667 2.27919 4.674 1.66667 9.16667H18.3333C17.7951 4.79622 14.2123 1.66667 10 1.66667Z" fill="#FFC901"/>
</svg>
